# xmcd
#
# Track frame offsets:
#	150
#	15518
#	30401
#	47746
#	60614
#	78443
#	98212
#	112162
#	126802
#	147522
#
# Disc length: 2194 seconds
#
# Revision: 0
# Processed by: cddbd v1.5.2PL0 Copyright (c) Steve Scherf et al.
# Submitted via: EasyCDDAExtractor 15.2.5.1
#
DISCID=8208900a
DTITLE=Wood - The Space Without Anxiety
DYEAR=2010
DGENRE=Tribal
TTITLE0=Blood Flow
TTITLE1=Circulation
TTITLE2=Back and Beyond
TTITLE3=Soul Limbo
TTITLE4=Slingshot
TTITLE5=Flatline
TTITLE6=The Space Without Anxiety
TTITLE7=Soul Recruit
TTITLE8=Crash and Bleed
TTITLE9=Closure
EXTD=
EXTT0=
EXTT1=
EXTT2=
EXTT3=
EXTT4=
EXTT5=
EXTT6=
EXTT7=
EXTT8=
EXTT9=
PLAYORDER=
